<svg xmlns="http://www.w3.org/2000/svg" xmlns:oryx="http://oryx-editor.org" id="_5B6C7D4C-382F-42CD-A797-B7E6E7AD3045" width="684.1166381835938" height="261.1666717529297" xmlns:xlink="http://www.w3.org/1999/xlink" xmlns:svg="http://www.w3.org/2000/svg"><defs><marker id="_55FACC24-6510-4214-87A9-AEB8AD430574start" refX="1" refY="5" markerUnits="userSpaceOnUse" markerWidth="17" markerHeight="11" orient="auto" fill="#000000" stroke="#000000"> 	  		<path id="_55FACC24-6510-4214-87A9-AEB8AD430574conditional" d="M 0 5 L 8 0 L 16 5 L 8 10 L 0 5" fill="white" stroke="#000000" stroke-width="1" display="none"/> 			<path id="_55FACC24-6510-4214-87A9-AEB8AD430574default" d="M 5 0 L 11 10" fill="white" stroke="#000000" stroke-width="1" display="none"/> 	  	</marker><marker id="_55FACC24-6510-4214-87A9-AEB8AD430574end" refX="15" refY="6" markerUnits="userSpaceOnUse" markerWidth="15" markerHeight="12" orient="auto" fill="#000000" stroke="#000000"> 	  		<path id="_55FACC24-6510-4214-87A9-AEB8AD430574frame2" d="M 0 1 L 15 6 L 0 11z" fill="#000000" stroke="#000000" stroke-linejoin="round" stroke-width="2"/> 	  	</marker><marker id="_BFE3A57F-3E36-4E8A-A7FC-26134DAE8C53start" refX="1" refY="5" markerUnits="userSpaceOnUse" markerWidth="17" markerHeight="11" orient="auto" fill="#000000" stroke="#000000"> 	  		<path id="_BFE3A57F-3E36-4E8A-A7FC-26134DAE8C53conditional" d="M 0 5 L 8 0 L 16 5 L 8 10 L 0 5" fill="white" stroke="#000000" stroke-width="1" display="none"/> 			<path id="_BFE3A57F-3E36-4E8A-A7FC-26134DAE8C53default" d="M 5 0 L 11 10" fill="white" stroke="#000000" stroke-width="1" display="none"/> 	  	</marker><marker id="_BFE3A57F-3E36-4E8A-A7FC-26134DAE8C53end" refX="15" refY="6" markerUnits="userSpaceOnUse" markerWidth="15" markerHeight="12" orient="auto" fill="#000000" stroke="#000000"> 	  		<path id="_BFE3A57F-3E36-4E8A-A7FC-26134DAE8C53frame2" d="M 0 1 L 15 6 L 0 11z" fill="#000000" stroke="#000000" stroke-linejoin="round" stroke-width="2"/> 	  	</marker><marker id="_F2FC0098-C27F-493A-B2A1-9B62297C267Cstart" refX="1" refY="5" markerUnits="userSpaceOnUse" markerWidth="17" markerHeight="11" orient="auto" fill="#000000" stroke="#000000"> 	  		<path id="_F2FC0098-C27F-493A-B2A1-9B62297C267Cconditional" d="M 0 5 L 8 0 L 16 5 L 8 10 L 0 5" fill="white" stroke="#000000" stroke-width="1" display="none"/> 			<path id="_F2FC0098-C27F-493A-B2A1-9B62297C267Cdefault" d="M 5 0 L 11 10" fill="white" stroke="#000000" stroke-width="1" display="none"/> 	  	</marker><marker id="_F2FC0098-C27F-493A-B2A1-9B62297C267Cend" refX="15" refY="6" markerUnits="userSpaceOnUse" markerWidth="15" markerHeight="12" orient="auto" fill="#000000" stroke="#000000"> 	  		<path id="_F2FC0098-C27F-493A-B2A1-9B62297C267Cframe2" d="M 0 1 L 15 6 L 0 11z" fill="#000000" stroke="#000000" stroke-linejoin="round" stroke-width="2"/> 	  	</marker></defs><g stroke="none" font-family="Verdana, sans-serif" font-size-adjust="none" font-style="normal" font-variant="normal" font-weight="normal" line-heigth="normal" font-size="12"><g class="stencils" transform="translate(16.116666793823242, 16.166666984558105)"><g class="me"/><g class="children"><g id="_087C5300-1475-4023-9319-61E24060E874" bpmn2nodeid="processStartEvent"><g class="stencils" transform="translate(120, 165)"><g class="me"><g pointer-events="fill" id="_087C5300-1475-4023-9319-61E24060E874">        <defs id="_087C5300-1475-4023-9319-61E24060E874__087C5300-1475-4023-9319-61E24060E874_5"> 		<radialGradient id="_087C5300-1475-4023-9319-61E24060E874background" cx="10%" cy="10%" r="100%" fx="10%" fy="10%"> 			<stop offset="0%" stop-color="#ffffff" stop-opacity="1" id="_087C5300-1475-4023-9319-61E24060E874__087C5300-1475-4023-9319-61E24060E874_6"/> 			<stop id="_087C5300-1475-4023-9319-61E24060E874fill_el" offset="100%" stop-color="#9acd32" stop-opacity="1"/> 		</radialGradient> 	</defs> 	     <circle id="_087C5300-1475-4023-9319-61E24060E874bg_frame" cx="15" cy="15" r="15" stroke="#000000" fill="url(#_087C5300-1475-4023-9319-61E24060E874background) white" stroke-width="1" style="stroke-dasharray: 5.5, 3"/>      <circle id="_087C5300-1475-4023-9319-61E24060E874frame" cx="15" cy="15" r="15" stroke="#000000" fill="none" stroke-width="1" display="inherit"/>  	<text font-size="11" id="_087C5300-1475-4023-9319-61E24060E874text_name" x="15" y="32" oryx:align="top center" stroke="black" stroke-width="0pt" letter-spacing="-0.01px" fill="#000000" text-anchor="middle" transform="rotate(0 15 32)" visibility="inherit" oryx:fontSize="11"/>   </g></g><g class="children" style="overflow:hidden"/><g class="edge"/></g><g class="controls"><g class="dockers"/><g class="magnets" transform="translate(120, 165)"><g pointer-events="all" display="none" transform="translate(7, 7)"><circle cx="8" cy="8" r="4" stroke="none" fill="red" fill-opacity="0.3"/></g></g></g></g><g id="_A7F0884A-1ACA-4DFF-B0C7-613B53D07374" bpmn2nodeid="_ED0B59B9-A2C2-404D-8DEF-D324AB6FD65D"><g class="stencils" transform="translate(195, 124)"><g class="me"><g pointer-events="fill" oryx:minimumSize="50 40" id="_A7F0884A-1ACA-4DFF-B0C7-613B53D07374">   	<defs id="_A7F0884A-1ACA-4DFF-B0C7-613B53D07374__A7F0884A-1ACA-4DFF-B0C7-613B53D07374_17"> 		<radialGradient id="_A7F0884A-1ACA-4DFF-B0C7-613B53D07374background" cx="10%" cy="10%" r="100%" fx="10%" fy="10%"> 			<stop offset="0%" stop-color="#ffffff" stop-opacity="1" id="_A7F0884A-1ACA-4DFF-B0C7-613B53D07374__A7F0884A-1ACA-4DFF-B0C7-613B53D07374_18"/> 			<stop id="_A7F0884A-1ACA-4DFF-B0C7-613B53D07374fill_el" offset="100%" stop-color="#fafad2" stop-opacity="1"/> 		</radialGradient> 		<radialGradient id="_A7F0884A-1ACA-4DFF-B0C7-613B53D07374borderbackground" cx="10%" cy="10%" r="100%" fx="10%" fy="10%"> 			<stop offset="0%" stop-color="#ffffff" stop-opacity="1" id="_A7F0884A-1ACA-4DFF-B0C7-613B53D07374__A7F0884A-1ACA-4DFF-B0C7-613B53D07374_19"/> 			<stop id="_A7F0884A-1ACA-4DFF-B0C7-613B53D07374fill_border" offset="100%" stop-color="#000000" stop-opacity="1" stroke="#000000"/> 		</radialGradient> 	</defs> 	 	<rect id="_A7F0884A-1ACA-4DFF-B0C7-613B53D07374text_frame" oryx:anchors="bottom top right left" x="1" y="1" width="94" height="79" rx="10" ry="10" stroke="none" stroke-width="0" fill="none"/> 	<rect id="_A7F0884A-1ACA-4DFF-B0C7-613B53D07374bg_frame" oryx:resize="vertical horizontal" x="0" y="0" width="100" height="80" rx="10" ry="10" stroke="#000000" stroke-width="1" fill="url(#_A7F0884A-1ACA-4DFF-B0C7-613B53D07374background) #ffffcc"/> 		<text font-size="12" id="_A7F0884A-1ACA-4DFF-B0C7-613B53D07374text_name" x="50" y="40" oryx:align="middle center" oryx:fittoelem="text_frame" stroke="black" text-anchor="middle" stroke-width="0pt" letter-spacing="-0.01px" fill="#000000" transform="rotate(0 50 40)" visibility="inherit" oryx:fontSize="12"><tspan x="50" y="40" dy="5" id="ext-gen692">MyScript</tspan></text>     <g id="_A7F0884A-1ACA-4DFF-B0C7-613B53D07374manualTask" transform="scale(0.7,0.7) translate(8,8)" display="none">     	<path oryx:anchors="top left" id="_A7F0884A-1ACA-4DFF-B0C7-613B53D07374frame" style="opacity:1;fill:none;fill-opacity:1;stroke-width:1" d="M0.5,3.751l4.083-3.25c0,0,11.166,0.083,12.083,0.083s-2.417,2.917-1.5,2.917     s11.667,0,12.584,0c1.166,1.708-0.168,3.167-0.834,3.667s0.875,1.917-1,4.417c-0.75,0.25,0.75,1.875-1.333,3.333     c-1.167,0.583,0.583,1.542-1.25,2.833c-1.167,0-20.833,0.083-20.833,0.083l-2-1.333V3.751z" stroke="#000000"/> 		<path id="_A7F0884A-1ACA-4DFF-B0C7-613B53D07374frame2" oryx:anchors="top left" style="opacity:1;fill:none;stroke-width:2" d="M 13.5 7 L 27 7" stroke="#000000"/> 		<path id="_A7F0884A-1ACA-4DFF-B0C7-613B53D07374frame3" oryx:anchors="top left" style="opacity:1;fill:none;stroke-width:2" d="M 13.5 11 L 26 11" stroke="#000000"/> 		<path id="_A7F0884A-1ACA-4DFF-B0C7-613B53D07374frame4" oryx:anchors="top left" style="opacity:1;fill:none;stroke-width:1.5" d="M 14 14.5 L 25 14.5" stroke="#000000"/> 		<path id="_A7F0884A-1ACA-4DFF-B0C7-613B53D07374frame5" oryx:anchors="top left" style="opacity:1;fill:none;stroke-width:1.5" d="M 8.2 3.1 L 15 3.1" stroke="#000000"/> 	</g> 	 	<g id="_A7F0884A-1ACA-4DFF-B0C7-613B53D07374businessRuleTask" transform="scale(0.7,0.7) translate(8,8)" display="none"> 		<rect id="_A7F0884A-1ACA-4DFF-B0C7-613B53D07374frame6" oryx:anchors="top left" x="0" y="0" width="22" height="4" style="opacity:1;fill:#B3B1B3;fill-opacity:1;" stroke="#000000"/> 		<rect id="_A7F0884A-1ACA-4DFF-B0C7-613B53D07374frame7" oryx:anchors="top left" x="0" y="4" style="opacity:1;fill:none;" width="22" height="12" stroke="#000000"/> 		<path id="_A7F0884A-1ACA-4DFF-B0C7-613B53D07374frame8" oryx:anchors="top left" style="opacity:1;fill:none;" d="M 0 10 L 22 10" stroke="#000000"/> 		<path id="_A7F0884A-1ACA-4DFF-B0C7-613B53D07374frame9" oryx:anchors="top left" style="opacity:1; fill:none;" d="M 7 4 L 7 16" stroke="#000000"/> 	</g> 	 	<g id="_A7F0884A-1ACA-4DFF-B0C7-613B53D07374scriptTask" transform="scale(0.7,0.7) translate(8,8)" display="inherit"> 		<path oryx:anchors="top left" id="_A7F0884A-1ACA-4DFF-B0C7-613B53D07374frame10" style="opacity:1;fill:none;" stroke="#000000" d="M6.402,0.5h14.5c0,0-5.833,2.833-5.833,5.583s4.417,6,4.417,9.167    s-4.167,5.083-4.167,5.083H0.235c0,0,5-2.667,5-5s-4.583-6.75-4.583-9.25S6.402,0.5,6.402,0.5z"/> 		<path oryx:anchors="top left" id="_A7F0884A-1ACA-4DFF-B0C7-613B53D07374frame11" style="opacity:1;fill:none;stroke-width:1.5" d="M 3.5 4.5 L 13.5 4.5" stroke="#000000"/> 		<path oryx:anchors="top left" id="_A7F0884A-1ACA-4DFF-B0C7-613B53D07374frame12" style="opacity:1;fill:none;stroke-width:1.5" d="M 3.8 8.5 L 13.8 8.5" stroke="#000000"/> 		<path oryx:anchors="top left" id="_A7F0884A-1ACA-4DFF-B0C7-613B53D07374frame13" style="opacity:1;fill:none;stroke-width:1.5" d="M 6.3 12.5 L 16.3 12.5" stroke="#000000"/> 		<path oryx:anchors="top left" id="_A7F0884A-1ACA-4DFF-B0C7-613B53D07374frame14" style="opacity:1;fill:none;stroke-width:1.5" d="M 6.5 16.5 L 16.5 16.5" stroke="#000000"/> 	</g> 	 	<g id="_A7F0884A-1ACA-4DFF-B0C7-613B53D07374userTask" transform="scale(0.7,0.7) translate(8,8)" display="none"> 		<path id="_A7F0884A-1ACA-4DFF-B0C7-613B53D07374frame15" oryx:anchors="top left" style="opacity:1;fill:#F4F6F7" stroke="#000000" d="M0.585,24.167h24.083v-7.833c0,0-2.333-3.917-7.083-5.167h-9.25    c-4.417,1.333-7.833,5.75-7.833,5.75L0.585,24.167z"/> 		<path id="_A7F0884A-1ACA-4DFF-B0C7-613B53D07374frame16" oryx:anchors="top left" style="opacity:1;fill:none" d="M 6 20 L 6 24" stroke="#000000"/> 		<path id="_A7F0884A-1ACA-4DFF-B0C7-613B53D07374frame17" oryx:anchors="top left" style="opacity:1;fill:none" d="M 20 20 L 20 24" stroke="#000000"/> 		<circle id="_A7F0884A-1ACA-4DFF-B0C7-613B53D07374frame18" oryx:anchors="top left" fill="black" cx="13.002" cy="5.916" r="5.417" stroke="#000000"/> 		<path id="_A7F0884A-1ACA-4DFF-B0C7-613B53D07374frame19" oryx:anchors="top left" style="opacity:1;fill:#F0EFF0;" stroke="#000000" d="M8.043,7.083c0,0,2.814-2.426,5.376-1.807s4.624-0.693,4.624-0.693    c0.25,1.688,0.042,3.75-1.458,5.584c0,0,1.083,0.75,1.083,1.5s0.125,1.875-1,3s-5.5,1.25-6.75,0S8.668,12.834,8.668,12    s0.583-1.25,1.25-1.917C8.835,9.5,7.419,7.708,8.043,7.083z"/> 	</g> 	 	<g id="_A7F0884A-1ACA-4DFF-B0C7-613B53D07374serviceTask" transform="scale(0.7,0.7) translate(8,8)" display="none"> 		<polygon oryx:anchors="top left" id="_A7F0884A-1ACA-4DFF-B0C7-613B53D07374frame20" style="opacity:1;fill:#ffffff" stroke="#000000" points="15.392,5.064 17.954,2.502 20.347,4.895 17.786,7.455     18.729,9.732 22.353,9.732 22.353,13.115 18.731,13.115 17.788,15.392 20.351,17.955 17.958,20.347 15.397,17.786 13.12,18.729     13.12,22.353 9.737,22.353 9.737,18.731 7.46,17.788 4.897,20.35 2.506,17.958 5.066,15.397 4.124,13.12 0.5,13.12 0.5,9.737     4.121,9.737 5.065,7.461 2.503,4.898 4.895,2.506 7.455,5.066 9.732,4.125 9.732,0.5 13.116,0.5 13.116,4.121 "/> 		<circle oryx:anchors="top left" id="_A7F0884A-1ACA-4DFF-B0C7-613B53D07374frame21" style="opacity:1;fill:none" stroke="#000000" cx="11.427" cy="11.426" r="3.714"/> 		<polygon oryx:anchors="top left" id="_A7F0884A-1ACA-4DFF-B0C7-613B53D07374frame22" style="opacity:1;fill:#ffffff" stroke="#000000" points="21.392,11.064 23.954,8.502 26.347,10.895 23.786,13.455     24.729,15.732 28.353,15.732 28.353,19.115 24.731,19.115 23.788,21.392 26.351,23.955 23.958,26.347 21.397,23.786 19.12,24.729     19.12,28.353 15.737,28.353 15.737,24.731 13.46,23.788 10.897,26.35 8.506,23.958 11.066,21.397 10.124,19.12 6.5,19.12     6.5,15.737 10.121,15.737 11.065,13.461 8.503,10.898 10.895,8.506 13.455,11.066 15.732,10.125 15.732,6.5 19.116,6.5     19.116,10.121 "/> 		<circle oryx:anchors="top left" id="_A7F0884A-1ACA-4DFF-B0C7-613B53D07374frame23" style="opacity:1;fill:none;" stroke="#000000" cx="17.427" cy="17.426" r="3.714"/> 	</g> 	 	<g id="_A7F0884A-1ACA-4DFF-B0C7-613B53D07374sendTask" display="none"> 		<path id="_A7F0884A-1ACA-4DFF-B0C7-613B53D07374stframe24" oryx:anchors="left top" stroke="#FFFFFF" fill="black" stroke-width="1" d="M8,11 L8,21 L24,21 L24,11 L16,17z"/> 		<path id="_A7F0884A-1ACA-4DFF-B0C7-613B53D07374stframe25" oryx:anchors="left top" stroke="#FFFFFF" fill="black" stroke-width="1" d="M7,10 L16,17 L25 10z"/> 	</g> 	 	<g id="_A7F0884A-1ACA-4DFF-B0C7-613B53D07374receiveTask" display="none"> 		<path id="_A7F0884A-1ACA-4DFF-B0C7-613B53D07374frame26" oryx:anchors="left top" stroke="#000000" fill="none" stroke-width="1" d="M8,11 L8,21 L24,21 L24,11z M8,11 L16,17 L24,11"/> 	</g> 	 	<g id="_A7F0884A-1ACA-4DFF-B0C7-613B53D07374none" display="inherit"/>  	<g id="_A7F0884A-1ACA-4DFF-B0C7-613B53D07374sequential" display="none">         <path oryx:anchors="bottom" fill="none" stroke="#000000" stroke-width="2" d="M46,76h10M46,72h10 M46,68h10" id="_A7F0884A-1ACA-4DFF-B0C7-613B53D07374__A7F0884A-1ACA-4DFF-B0C7-613B53D07374_20"/>     </g>   </g></g><g class="children" style="overflow:hidden"/><g class="edge"/></g><g class="controls"><g class="dockers"/><g class="magnets" transform="translate(195, 124)"><g pointer-events="all" display="none" transform="translate(-7, 12)"><circle cx="8" cy="8" r="4" stroke="none" fill="red" fill-opacity="0.3"/></g><g pointer-events="all" display="none" transform="translate(-7, 32)"><circle cx="8" cy="8" r="4" stroke="none" fill="red" fill-opacity="0.3"/></g><g pointer-events="all" display="none" transform="translate(-7, 52)"><circle cx="8" cy="8" r="4" stroke="none" fill="red" fill-opacity="0.3"/></g><g pointer-events="all" display="none" transform="translate(17, 71)"><circle cx="8" cy="8" r="4" stroke="none" fill="red" fill-opacity="0.3"/></g><g pointer-events="all" display="none" transform="translate(42, 71)"><circle cx="8" cy="8" r="4" stroke="none" fill="red" fill-opacity="0.3"/></g><g pointer-events="all" display="none" transform="translate(67, 71)"><circle cx="8" cy="8" r="4" stroke="none" fill="red" fill-opacity="0.3"/></g><g pointer-events="all" display="none" transform="translate(91, 12)"><circle cx="8" cy="8" r="4" stroke="none" fill="red" fill-opacity="0.3"/></g><g pointer-events="all" display="none" transform="translate(91, 32)"><circle cx="8" cy="8" r="4" stroke="none" fill="red" fill-opacity="0.3"/></g><g pointer-events="all" display="none" transform="translate(91, 52)"><circle cx="8" cy="8" r="4" stroke="none" fill="red" fill-opacity="0.3"/></g><g pointer-events="all" display="none" transform="translate(17, -7)"><circle cx="8" cy="8" r="4" stroke="none" fill="red" fill-opacity="0.3"/></g><g pointer-events="all" display="none" transform="translate(42, -7)"><circle cx="8" cy="8" r="4" stroke="none" fill="red" fill-opacity="0.3"/></g><g pointer-events="all" display="none" transform="translate(67, -7)"><circle cx="8" cy="8" r="4" stroke="none" fill="red" fill-opacity="0.3"/></g><g pointer-events="all" display="none" transform="translate(42, 32)"><circle cx="8" cy="8" r="4" stroke="none" fill="red" fill-opacity="0.3"/></g></g></g></g><g id="_0FBD474A-07D6-4BB2-A179-7A4FFDC8B398" bpmn2nodeid="_596CB6D5-AD8D-4764-BEF7-E2C676D33607"><g class="stencils" transform="translate(615, 150)"><g class="me"><g pointer-events="fill" id="_0FBD474A-07D6-4BB2-A179-7A4FFDC8B398">      <defs id="_0FBD474A-07D6-4BB2-A179-7A4FFDC8B398__0FBD474A-07D6-4BB2-A179-7A4FFDC8B398_5"> 		<radialGradient id="_0FBD474A-07D6-4BB2-A179-7A4FFDC8B398background" cx="10%" cy="10%" r="100%" fx="10%" fy="10%"> 			<stop offset="0%" stop-color="#ffffff" stop-opacity="1" id="_0FBD474A-07D6-4BB2-A179-7A4FFDC8B398__0FBD474A-07D6-4BB2-A179-7A4FFDC8B398_6"/> 			<stop id="_0FBD474A-07D6-4BB2-A179-7A4FFDC8B398fill_el" offset="100%" stop-color="#ff6347" stop-opacity="1"/> 		</radialGradient> 	</defs> 	     <circle id="_0FBD474A-07D6-4BB2-A179-7A4FFDC8B398bg_frame" cx="14" cy="14" r="14" stroke="#000000" fill="url(#_0FBD474A-07D6-4BB2-A179-7A4FFDC8B398background) white" stroke-width="3"/> 	<text font-size="11" id="_0FBD474A-07D6-4BB2-A179-7A4FFDC8B398text_name" x="14" y="30" oryx:align="top center" stroke="black" stroke-width="0pt" letter-spacing="-0.01px" fill="#000000" text-anchor="middle" transform="rotate(0 14 30)" visibility="inherit" oryx:fontSize="11"/>   </g></g><g class="children" style="overflow:hidden"/><g class="edge"/></g><g class="controls"><g class="dockers"/><g class="magnets" transform="translate(615, 150)"><g pointer-events="all" display="none" transform="translate(6, 6)"><circle cx="8" cy="8" r="4" stroke="none" fill="red" fill-opacity="0.3"/></g></g></g></g><g id="_5D2254B6-27C9-4E35-A74A-AC05BDF7FB03" bpmn2nodeid="_3EE3B02B-078F-4413-A1E8-B3459B835536"><g class="stencils" transform="translate(340, 140)"><g class="me"><g pointer-events="fill" oryx:minimumSize="50 40" id="_5D2254B6-27C9-4E35-A74A-AC05BDF7FB03">   	<defs id="_5D2254B6-27C9-4E35-A74A-AC05BDF7FB03__5D2254B6-27C9-4E35-A74A-AC05BDF7FB03_17"> 		<radialGradient id="_5D2254B6-27C9-4E35-A74A-AC05BDF7FB03background" cx="10%" cy="10%" r="100%" fx="10%" fy="10%"> 			<stop offset="0%" stop-color="#ffffff" stop-opacity="1" id="_5D2254B6-27C9-4E35-A74A-AC05BDF7FB03__5D2254B6-27C9-4E35-A74A-AC05BDF7FB03_18"/> 			<stop id="_5D2254B6-27C9-4E35-A74A-AC05BDF7FB03fill_el" offset="100%" stop-color="#fafad2" stop-opacity="1"/> 		</radialGradient> 		<radialGradient id="_5D2254B6-27C9-4E35-A74A-AC05BDF7FB03borderbackground" cx="10%" cy="10%" r="100%" fx="10%" fy="10%"> 			<stop offset="0%" stop-color="#ffffff" stop-opacity="1" id="_5D2254B6-27C9-4E35-A74A-AC05BDF7FB03__5D2254B6-27C9-4E35-A74A-AC05BDF7FB03_19"/> 			<stop id="_5D2254B6-27C9-4E35-A74A-AC05BDF7FB03fill_border" offset="100%" stop-color="#000000" stop-opacity="1" stroke="#000000"/> 		</radialGradient> 	</defs> 	 	<rect id="_5D2254B6-27C9-4E35-A74A-AC05BDF7FB03text_frame" oryx:anchors="bottom top right left" x="1" y="1" width="94" height="79" rx="10" ry="10" stroke="none" stroke-width="0" fill="none"/> 	<rect id="_5D2254B6-27C9-4E35-A74A-AC05BDF7FB03bg_frame" oryx:resize="vertical horizontal" x="0" y="0" width="100" height="80" rx="10" ry="10" stroke="#000000" stroke-width="1" fill="url(#_5D2254B6-27C9-4E35-A74A-AC05BDF7FB03background) #ffffcc"/> 		<text font-size="12" id="_5D2254B6-27C9-4E35-A74A-AC05BDF7FB03text_name" x="50" y="40" oryx:align="middle center" oryx:fittoelem="text_frame" stroke="black" text-anchor="middle" stroke-width="0pt" letter-spacing="-0.01px" fill="#000000" transform="rotate(0 50 40)" visibility="inherit" oryx:fontSize="12"><tspan x="50" y="40" dy="5" id="ext-gen878">tal task</tspan></text>     <g id="_5D2254B6-27C9-4E35-A74A-AC05BDF7FB03manualTask" transform="scale(0.7,0.7) translate(8,8)" display="none">     	<path oryx:anchors="top left" id="_5D2254B6-27C9-4E35-A74A-AC05BDF7FB03frame" style="opacity:1;fill:none;fill-opacity:1;stroke-width:1" d="M0.5,3.751l4.083-3.25c0,0,11.166,0.083,12.083,0.083s-2.417,2.917-1.5,2.917     s11.667,0,12.584,0c1.166,1.708-0.168,3.167-0.834,3.667s0.875,1.917-1,4.417c-0.75,0.25,0.75,1.875-1.333,3.333     c-1.167,0.583,0.583,1.542-1.25,2.833c-1.167,0-20.833,0.083-20.833,0.083l-2-1.333V3.751z" stroke="#000000"/> 		<path id="_5D2254B6-27C9-4E35-A74A-AC05BDF7FB03frame2" oryx:anchors="top left" style="opacity:1;fill:none;stroke-width:2" d="M 13.5 7 L 27 7" stroke="#000000"/> 		<path id="_5D2254B6-27C9-4E35-A74A-AC05BDF7FB03frame3" oryx:anchors="top left" style="opacity:1;fill:none;stroke-width:2" d="M 13.5 11 L 26 11" stroke="#000000"/> 		<path id="_5D2254B6-27C9-4E35-A74A-AC05BDF7FB03frame4" oryx:anchors="top left" style="opacity:1;fill:none;stroke-width:1.5" d="M 14 14.5 L 25 14.5" stroke="#000000"/> 		<path id="_5D2254B6-27C9-4E35-A74A-AC05BDF7FB03frame5" oryx:anchors="top left" style="opacity:1;fill:none;stroke-width:1.5" d="M 8.2 3.1 L 15 3.1" stroke="#000000"/> 	</g> 	 	<g id="_5D2254B6-27C9-4E35-A74A-AC05BDF7FB03businessRuleTask" transform="scale(0.7,0.7) translate(8,8)" display="none"> 		<rect id="_5D2254B6-27C9-4E35-A74A-AC05BDF7FB03frame6" oryx:anchors="top left" x="0" y="0" width="22" height="4" style="opacity:1;fill:#B3B1B3;fill-opacity:1;" stroke="#000000"/> 		<rect id="_5D2254B6-27C9-4E35-A74A-AC05BDF7FB03frame7" oryx:anchors="top left" x="0" y="4" style="opacity:1;fill:none;" width="22" height="12" stroke="#000000"/> 		<path id="_5D2254B6-27C9-4E35-A74A-AC05BDF7FB03frame8" oryx:anchors="top left" style="opacity:1;fill:none;" d="M 0 10 L 22 10" stroke="#000000"/> 		<path id="_5D2254B6-27C9-4E35-A74A-AC05BDF7FB03frame9" oryx:anchors="top left" style="opacity:1; fill:none;" d="M 7 4 L 7 16" stroke="#000000"/> 	</g> 	 	<g id="_5D2254B6-27C9-4E35-A74A-AC05BDF7FB03scriptTask" transform="scale(0.7,0.7) translate(8,8)" display="none"> 		<path oryx:anchors="top left" id="_5D2254B6-27C9-4E35-A74A-AC05BDF7FB03frame10" style="opacity:1;fill:none;" stroke="#000000" d="M6.402,0.5h14.5c0,0-5.833,2.833-5.833,5.583s4.417,6,4.417,9.167    s-4.167,5.083-4.167,5.083H0.235c0,0,5-2.667,5-5s-4.583-6.75-4.583-9.25S6.402,0.5,6.402,0.5z"/> 		<path oryx:anchors="top left" id="_5D2254B6-27C9-4E35-A74A-AC05BDF7FB03frame11" style="opacity:1;fill:none;stroke-width:1.5" d="M 3.5 4.5 L 13.5 4.5" stroke="#000000"/> 		<path oryx:anchors="top left" id="_5D2254B6-27C9-4E35-A74A-AC05BDF7FB03frame12" style="opacity:1;fill:none;stroke-width:1.5" d="M 3.8 8.5 L 13.8 8.5" stroke="#000000"/> 		<path oryx:anchors="top left" id="_5D2254B6-27C9-4E35-A74A-AC05BDF7FB03frame13" style="opacity:1;fill:none;stroke-width:1.5" d="M 6.3 12.5 L 16.3 12.5" stroke="#000000"/> 		<path oryx:anchors="top left" id="_5D2254B6-27C9-4E35-A74A-AC05BDF7FB03frame14" style="opacity:1;fill:none;stroke-width:1.5" d="M 6.5 16.5 L 16.5 16.5" stroke="#000000"/> 	</g> 	 	<g id="_5D2254B6-27C9-4E35-A74A-AC05BDF7FB03userTask" transform="scale(0.7,0.7) translate(8,8)" display="inherit"> 		<path id="_5D2254B6-27C9-4E35-A74A-AC05BDF7FB03frame15" oryx:anchors="top left" style="opacity:1;fill:#F4F6F7" stroke="#000000" d="M0.585,24.167h24.083v-7.833c0,0-2.333-3.917-7.083-5.167h-9.25    c-4.417,1.333-7.833,5.75-7.833,5.75L0.585,24.167z"/> 		<path id="_5D2254B6-27C9-4E35-A74A-AC05BDF7FB03frame16" oryx:anchors="top left" style="opacity:1;fill:none" d="M 6 20 L 6 24" stroke="#000000"/> 		<path id="_5D2254B6-27C9-4E35-A74A-AC05BDF7FB03frame17" oryx:anchors="top left" style="opacity:1;fill:none" d="M 20 20 L 20 24" stroke="#000000"/> 		<circle id="_5D2254B6-27C9-4E35-A74A-AC05BDF7FB03frame18" oryx:anchors="top left" fill="black" cx="13.002" cy="5.916" r="5.417" stroke="#000000"/> 		<path id="_5D2254B6-27C9-4E35-A74A-AC05BDF7FB03frame19" oryx:anchors="top left" style="opacity:1;fill:#F0EFF0;" stroke="#000000" d="M8.043,7.083c0,0,2.814-2.426,5.376-1.807s4.624-0.693,4.624-0.693    c0.25,1.688,0.042,3.75-1.458,5.584c0,0,1.083,0.75,1.083,1.5s0.125,1.875-1,3s-5.5,1.25-6.75,0S8.668,12.834,8.668,12    s0.583-1.25,1.25-1.917C8.835,9.5,7.419,7.708,8.043,7.083z"/> 	</g> 	 	<g id="_5D2254B6-27C9-4E35-A74A-AC05BDF7FB03serviceTask" transform="scale(0.7,0.7) translate(8,8)" display="none"> 		<polygon oryx:anchors="top left" id="_5D2254B6-27C9-4E35-A74A-AC05BDF7FB03frame20" style="opacity:1;fill:#ffffff" stroke="#000000" points="15.392,5.064 17.954,2.502 20.347,4.895 17.786,7.455     18.729,9.732 22.353,9.732 22.353,13.115 18.731,13.115 17.788,15.392 20.351,17.955 17.958,20.347 15.397,17.786 13.12,18.729     13.12,22.353 9.737,22.353 9.737,18.731 7.46,17.788 4.897,20.35 2.506,17.958 5.066,15.397 4.124,13.12 0.5,13.12 0.5,9.737     4.121,9.737 5.065,7.461 2.503,4.898 4.895,2.506 7.455,5.066 9.732,4.125 9.732,0.5 13.116,0.5 13.116,4.121 "/> 		<circle oryx:anchors="top left" id="_5D2254B6-27C9-4E35-A74A-AC05BDF7FB03frame21" style="opacity:1;fill:none" stroke="#000000" cx="11.427" cy="11.426" r="3.714"/> 		<polygon oryx:anchors="top left" id="_5D2254B6-27C9-4E35-A74A-AC05BDF7FB03frame22" style="opacity:1;fill:#ffffff" stroke="#000000" points="21.392,11.064 23.954,8.502 26.347,10.895 23.786,13.455     24.729,15.732 28.353,15.732 28.353,19.115 24.731,19.115 23.788,21.392 26.351,23.955 23.958,26.347 21.397,23.786 19.12,24.729     19.12,28.353 15.737,28.353 15.737,24.731 13.46,23.788 10.897,26.35 8.506,23.958 11.066,21.397 10.124,19.12 6.5,19.12     6.5,15.737 10.121,15.737 11.065,13.461 8.503,10.898 10.895,8.506 13.455,11.066 15.732,10.125 15.732,6.5 19.116,6.5     19.116,10.121 "/> 		<circle oryx:anchors="top left" id="_5D2254B6-27C9-4E35-A74A-AC05BDF7FB03frame23" style="opacity:1;fill:none;" stroke="#000000" cx="17.427" cy="17.426" r="3.714"/> 	</g> 	 	<g id="_5D2254B6-27C9-4E35-A74A-AC05BDF7FB03sendTask" display="none"> 		<path id="_5D2254B6-27C9-4E35-A74A-AC05BDF7FB03stframe24" oryx:anchors="left top" stroke="#FFFFFF" fill="black" stroke-width="1" d="M8,11 L8,21 L24,21 L24,11 L16,17z"/> 		<path id="_5D2254B6-27C9-4E35-A74A-AC05BDF7FB03stframe25" oryx:anchors="left top" stroke="#FFFFFF" fill="black" stroke-width="1" d="M7,10 L16,17 L25 10z"/> 	</g> 	 	<g id="_5D2254B6-27C9-4E35-A74A-AC05BDF7FB03receiveTask" display="none"> 		<path id="_5D2254B6-27C9-4E35-A74A-AC05BDF7FB03frame26" oryx:anchors="left top" stroke="#000000" fill="none" stroke-width="1" d="M8,11 L8,21 L24,21 L24,11z M8,11 L16,17 L24,11"/> 	</g> 	 	<g id="_5D2254B6-27C9-4E35-A74A-AC05BDF7FB03none" display="none"/>  	<g id="_5D2254B6-27C9-4E35-A74A-AC05BDF7FB03sequential" display="none">         <path oryx:anchors="bottom" fill="none" stroke="#000000" stroke-width="2" d="M46,76h10M46,72h10 M46,68h10" id="_5D2254B6-27C9-4E35-A74A-AC05BDF7FB03__5D2254B6-27C9-4E35-A74A-AC05BDF7FB03_20"/>     </g>   </g></g><g class="children" style="overflow:hidden"/><g class="edge"/></g><g class="controls"><g class="dockers"/><g class="magnets" transform="translate(340, 140)"><g pointer-events="all" display="none" transform="translate(-7, 12)"><circle cx="8" cy="8" r="4" stroke="none" fill="red" fill-opacity="0.3"/></g><g pointer-events="all" display="none" transform="translate(-7, 32)"><circle cx="8" cy="8" r="4" stroke="none" fill="red" fill-opacity="0.3"/></g><g pointer-events="all" display="none" transform="translate(-7, 52)"><circle cx="8" cy="8" r="4" stroke="none" fill="red" fill-opacity="0.3"/></g><g pointer-events="all" display="none" transform="translate(17, 71)"><circle cx="8" cy="8" r="4" stroke="none" fill="red" fill-opacity="0.3"/></g><g pointer-events="all" display="none" transform="translate(42, 71)"><circle cx="8" cy="8" r="4" stroke="none" fill="red" fill-opacity="0.3"/></g><g pointer-events="all" display="none" transform="translate(67, 71)"><circle cx="8" cy="8" r="4" stroke="none" fill="red" fill-opacity="0.3"/></g><g pointer-events="all" display="none" transform="translate(91, 12)"><circle cx="8" cy="8" r="4" stroke="none" fill="red" fill-opacity="0.3"/></g><g pointer-events="all" display="none" transform="translate(91, 32)"><circle cx="8" cy="8" r="4" stroke="none" fill="red" fill-opacity="0.3"/></g><g pointer-events="all" display="none" transform="translate(91, 52)"><circle cx="8" cy="8" r="4" stroke="none" fill="red" fill-opacity="0.3"/></g><g pointer-events="all" display="none" transform="translate(17, -7)"><circle cx="8" cy="8" r="4" stroke="none" fill="red" fill-opacity="0.3"/></g><g pointer-events="all" display="none" transform="translate(42, -7)"><circle cx="8" cy="8" r="4" stroke="none" fill="red" fill-opacity="0.3"/></g><g pointer-events="all" display="none" transform="translate(67, -7)"><circle cx="8" cy="8" r="4" stroke="none" fill="red" fill-opacity="0.3"/></g><g pointer-events="all" display="none" transform="translate(42, 32)"><circle cx="8" cy="8" r="4" stroke="none" fill="red" fill-opacity="0.3"/></g></g></g></g></g><g class="edge"><g id="_55FACC24-6510-4214-87A9-AEB8AD430574" bpmn2nodeid="_13D066DB-96C5-4CAE-94D4-1F1F96B99624"><g class="stencils"><g class="me"><g pointer-events="painted" bpmn2nodeid="_12FF2366-717C-499A-AFA9-5281409EA06A"><path id="_55FACC24-6510-4214-87A9-AEB8AD430574_1" d="M150.59896143928452 177.7310601542859L194.16666356071548 171.3939398457141 " stroke="#000000" fill="none" stroke-width="2" stroke-linecap="round" stroke-linejoin="round" marker-start="url(#_55FACC24-6510-4214-87A9-AEB8AD430574start)" marker-end="url(#_55FACC24-6510-4214-87A9-AEB8AD430574end)"/></g><text id="_55FACC24-6510-4214-87A9-AEB8AD430574text_name" font-size="12" x="164.59896143928452" y="163.7310601542859" oryx:edgePosition="startTop" stroke-width="0pt" letter-spacing="-0.01px" fill="#000000" text-anchor="start" transform="rotate(351.7241071729248 150.59896143928452 177.7310601542859)" visibility="inherit" oryx:fontSize="12"/></g><g class="children" style="overflow:hidden"/><g class="edge"/></g><g class="controls"><g class="dockers"/><g class="magnets"/></g></g><g id="_BFE3A57F-3E36-4E8A-A7FC-26134DAE8C53" bpmn2nodeid="_A802C000-946C-44A5-97B4-8B8993240EAE"><g class="stencils"><g class="me"><g pointer-events="painted" bpmn2nodeid="_A802C000-946C-44A5-97B4-8B8993240EAE"><path id="_BFE3A57F-3E36-4E8A-A7FC-26134DAE8C53_1" d="M295.8377170467921 169.60967912240463L339.1622829532079 174.39032087759537 " stroke="#000000" fill="none" stroke-width="2" stroke-linecap="round" stroke-linejoin="round" marker-start="url(#_BFE3A57F-3E36-4E8A-A7FC-26134DAE8C53start)" marker-end="url(#_BFE3A57F-3E36-4E8A-A7FC-26134DAE8C53end)"/></g><text id="_BFE3A57F-3E36-4E8A-A7FC-26134DAE8C53text_name" font-size="12" x="309.8377170467921" y="155.60967912240463" oryx:edgePosition="startTop" stroke-width="0pt" letter-spacing="-0.01px" fill="#000000" text-anchor="start" transform="rotate(6.296818718984468 295.8377170467921 169.60967912240463)" visibility="inherit" oryx:fontSize="12"/></g><g class="children" style="overflow:hidden"/><g class="edge"/></g><g class="controls"><g class="dockers"/><g class="magnets"/></g></g><g id="_F2FC0098-C27F-493A-B2A1-9B62297C267C" bpmn2nodeid="_1DF5C817-F857-41E8-953E-99B536B7CC4A"><g class="stencils"><g class="me"><g pointer-events="painted" bpmn2nodeid="_1DF5C817-F857-41E8-953E-99B536B7CC4A"><path id="_F2FC0098-C27F-493A-B2A1-9B62297C267C_1" d="M440.4782353970122 176.62070390647617L614.9319208529878 164.94179609352383 " stroke="#000000" fill="none" stroke-width="2" stroke-linecap="round" stroke-linejoin="round" marker-start="url(#_F2FC0098-C27F-493A-B2A1-9B62297C267Cstart)" marker-end="url(#_F2FC0098-C27F-493A-B2A1-9B62297C267Cend)"/></g><text id="_F2FC0098-C27F-493A-B2A1-9B62297C267Ctext_name" font-size="12" x="454.4782353970122" y="162.62070390647617" oryx:edgePosition="startTop" stroke-width="0pt" letter-spacing="-0.01px" fill="#000000" text-anchor="start" transform="rotate(356.1700140915524 440.4782353970122 176.62070390647617)" visibility="inherit" oryx:fontSize="12"/></g><g class="children" style="overflow:hidden"/><g class="edge"/></g><g class="controls"><g class="dockers"/><g class="magnets"/></g></g></g><text id="_4E95DFD3-2A75-4902-A187-50D07BF4A90D" style="stroke-width:1;fill:rgb(177,194,214);font-family:arial;font-weight:bold" font-size="12" onclick="ORYX.Plugins.CanvasTitle.openTextualAnalysis()" onmouseover="ORYX.Plugins.CanvasTitle.addToolTip('_4E95DFD3-2A75-4902-A187-50D07BF4A90D')" transform="translate(10, 20)">ImageTest v.1.0 (simple-process.ImageTest)</text></g></g></svg>