<svg xmlns="http://www.w3.org/2000/svg" xmlns:oryx="http://oryx-editor.org" id="_2B9DE057-CE62-4639-BCD8-0D0201569713" width="409.1166687011719" height="265.1666717529297" xmlns:xlink="http://www.w3.org/1999/xlink" xmlns:svg="http://www.w3.org/2000/svg"><defs><marker id="_D6A0C8F2-0DD9-48AF-A4FF-5DF69D83CF95start" refX="1" refY="5" markerUnits="userSpaceOnUse" markerWidth="17" markerHeight="11" orient="auto" fill="#000000" stroke="#000000"> 	  		<path id="_D6A0C8F2-0DD9-48AF-A4FF-5DF69D83CF95conditional" d="M 0 5 L 8 0 L 16 5 L 8 10 L 0 5" fill="white" stroke="#000000" stroke-width="1" display="none"/> 			<path id="_D6A0C8F2-0DD9-48AF-A4FF-5DF69D83CF95default" d="M 5 0 L 11 10" fill="white" stroke="#000000" stroke-width="1" display="none"/> 	  	</marker><marker id="_D6A0C8F2-0DD9-48AF-A4FF-5DF69D83CF95end" refX="15" refY="6" markerUnits="userSpaceOnUse" markerWidth="15" markerHeight="12" orient="auto" fill="#000000" stroke="#000000"> 	  		<path id="_D6A0C8F2-0DD9-48AF-A4FF-5DF69D83CF95frame2" d="M 0 1 L 15 6 L 0 11z" fill="#000000" stroke="#000000" stroke-linejoin="round" stroke-width="2"/> 	  	</marker><marker id="_7FB3D58E-3ECF-48EF-B4AE-F8292F2CF5CDstart" refX="1" refY="5" markerUnits="userSpaceOnUse" markerWidth="17" markerHeight="11" orient="auto" fill="#000000" stroke="#000000"> 	  		<path id="_7FB3D58E-3ECF-48EF-B4AE-F8292F2CF5CDconditional" d="M 0 5 L 8 0 L 16 5 L 8 10 L 0 5" fill="white" stroke="#000000" stroke-width="1" display="none"/> 			<path id="_7FB3D58E-3ECF-48EF-B4AE-F8292F2CF5CDdefault" d="M 5 0 L 11 10" fill="white" stroke="#000000" stroke-width="1" display="none"/> 	  	</marker><marker id="_7FB3D58E-3ECF-48EF-B4AE-F8292F2CF5CDend" refX="15" refY="6" markerUnits="userSpaceOnUse" markerWidth="15" markerHeight="12" orient="auto" fill="#000000" stroke="#000000"> 	  		<path id="_7FB3D58E-3ECF-48EF-B4AE-F8292F2CF5CDframe2" d="M 0 1 L 15 6 L 0 11z" fill="#000000" stroke="#000000" stroke-linejoin="round" stroke-width="2"/> 	  	</marker></defs><g stroke="none" font-family="Verdana, sans-serif" font-size-adjust="none" font-style="normal" font-variant="normal" font-weight="normal" line-heigth="normal" font-size="12"><g class="stencils" transform="translate(16.116666793823242, 16.166666984558105)"><g class="me"/><g class="children"><g id="_59B2E057-5A44-4492-BC6C-6B24D68333F4" bpmn2nodeid="processStartEvent"><g class="stencils" transform="translate(120, 165)"><g class="me"><g pointer-events="fill" id="_59B2E057-5A44-4492-BC6C-6B24D68333F4">        <defs id="_59B2E057-5A44-4492-BC6C-6B24D68333F4__59B2E057-5A44-4492-BC6C-6B24D68333F4_5"> 		<radialGradient id="_59B2E057-5A44-4492-BC6C-6B24D68333F4background" cx="10%" cy="10%" r="100%" fx="10%" fy="10%"> 			<stop offset="0%" stop-color="#ffffff" stop-opacity="1" id="_59B2E057-5A44-4492-BC6C-6B24D68333F4__59B2E057-5A44-4492-BC6C-6B24D68333F4_6"/> 			<stop id="_59B2E057-5A44-4492-BC6C-6B24D68333F4fill_el" offset="100%" stop-color="#9acd32" stop-opacity="1"/> 		</radialGradient> 	</defs> 	     <circle id="_59B2E057-5A44-4492-BC6C-6B24D68333F4bg_frame" cx="15" cy="15" r="15" stroke="#000000" fill="url(#_59B2E057-5A44-4492-BC6C-6B24D68333F4background) white" stroke-width="1" style="stroke-dasharray: 5.5, 3"/>      <circle id="_59B2E057-5A44-4492-BC6C-6B24D68333F4frame" cx="15" cy="15" r="15" stroke="#000000" fill="none" stroke-width="1" display="inherit"/>  	<text font-size="11" id="_59B2E057-5A44-4492-BC6C-6B24D68333F4text_name" x="15" y="32" oryx:align="top center" stroke="black" stroke-width="0pt" letter-spacing="-0.01px" fill="#000000" text-anchor="middle" transform="rotate(0 15 32)" visibility="inherit" oryx:fontSize="11"/>   </g></g><g class="children" style="overflow:hidden"/><g class="edge"/></g><g class="controls"><g class="dockers"/><g class="magnets" transform="translate(120, 165)"><g pointer-events="all" display="none" transform="translate(7, 7)"><circle cx="8" cy="8" r="4" stroke="none" fill="red" fill-opacity="0.3"/></g></g></g></g><g id="_916291DA-E0CE-4524-A1B8-A9ED7D92708A" bpmn2nodeid="_68C6AD6F-99BF-43DA-98CB-2B4F88559C8E"><g class="stencils" transform="translate(195, 140)"><g class="me"><g pointer-events="fill" oryx:minimumSize="50 40" id="_916291DA-E0CE-4524-A1B8-A9ED7D92708A">   	<defs id="_916291DA-E0CE-4524-A1B8-A9ED7D92708A__916291DA-E0CE-4524-A1B8-A9ED7D92708A_17"> 		<radialGradient id="_916291DA-E0CE-4524-A1B8-A9ED7D92708Abackground" cx="10%" cy="10%" r="100%" fx="10%" fy="10%"> 			<stop offset="0%" stop-color="#ffffff" stop-opacity="1" id="_916291DA-E0CE-4524-A1B8-A9ED7D92708A__916291DA-E0CE-4524-A1B8-A9ED7D92708A_18"/> 			<stop id="_916291DA-E0CE-4524-A1B8-A9ED7D92708Afill_el" offset="100%" stop-color="#fafad2" stop-opacity="1"/> 		</radialGradient> 		<radialGradient id="_916291DA-E0CE-4524-A1B8-A9ED7D92708Aborderbackground" cx="10%" cy="10%" r="100%" fx="10%" fy="10%"> 			<stop offset="0%" stop-color="#ffffff" stop-opacity="1" id="_916291DA-E0CE-4524-A1B8-A9ED7D92708A__916291DA-E0CE-4524-A1B8-A9ED7D92708A_19"/> 			<stop id="_916291DA-E0CE-4524-A1B8-A9ED7D92708Afill_border" offset="100%" stop-color="#000000" stop-opacity="1" stroke="#000000"/> 		</radialGradient> 	</defs> 	 	<rect id="_916291DA-E0CE-4524-A1B8-A9ED7D92708Atext_frame" oryx:anchors="bottom top right left" x="1" y="1" width="94" height="79" rx="10" ry="10" stroke="none" stroke-width="0" fill="none"/> 	<rect id="_916291DA-E0CE-4524-A1B8-A9ED7D92708Abg_frame" oryx:resize="vertical horizontal" x="0" y="0" width="100" height="80" rx="10" ry="10" stroke="#000000" stroke-width="1" fill="url(#_916291DA-E0CE-4524-A1B8-A9ED7D92708Abackground) #ffffcc"/> 		<text font-size="12" id="_916291DA-E0CE-4524-A1B8-A9ED7D92708Atext_name" x="50" y="40" oryx:align="middle center" oryx:fittoelem="text_frame" stroke="black" text-anchor="middle" stroke-width="0pt" letter-spacing="-0.01px" fill="#000000" transform="rotate(0 50 40)" visibility="inherit" oryx:fontSize="12"><tspan x="50" y="40" dy="5">test 3</tspan></text>     <g id="_916291DA-E0CE-4524-A1B8-A9ED7D92708AmanualTask" transform="scale(0.7,0.7) translate(8,8)" display="none">     	<path oryx:anchors="top left" id="_916291DA-E0CE-4524-A1B8-A9ED7D92708Aframe" style="opacity:1;fill:none;fill-opacity:1;stroke-width:1" d="M0.5,3.751l4.083-3.25c0,0,11.166,0.083,12.083,0.083s-2.417,2.917-1.5,2.917     s11.667,0,12.584,0c1.166,1.708-0.168,3.167-0.834,3.667s0.875,1.917-1,4.417c-0.75,0.25,0.75,1.875-1.333,3.333     c-1.167,0.583,0.583,1.542-1.25,2.833c-1.167,0-20.833,0.083-20.833,0.083l-2-1.333V3.751z" stroke="#000000"/> 		<path id="_916291DA-E0CE-4524-A1B8-A9ED7D92708Aframe2" oryx:anchors="top left" style="opacity:1;fill:none;stroke-width:2" d="M 13.5 7 L 27 7" stroke="#000000"/> 		<path id="_916291DA-E0CE-4524-A1B8-A9ED7D92708Aframe3" oryx:anchors="top left" style="opacity:1;fill:none;stroke-width:2" d="M 13.5 11 L 26 11" stroke="#000000"/> 		<path id="_916291DA-E0CE-4524-A1B8-A9ED7D92708Aframe4" oryx:anchors="top left" style="opacity:1;fill:none;stroke-width:1.5" d="M 14 14.5 L 25 14.5" stroke="#000000"/> 		<path id="_916291DA-E0CE-4524-A1B8-A9ED7D92708Aframe5" oryx:anchors="top left" style="opacity:1;fill:none;stroke-width:1.5" d="M 8.2 3.1 L 15 3.1" stroke="#000000"/> 	</g> 	 	<g id="_916291DA-E0CE-4524-A1B8-A9ED7D92708AbusinessRuleTask" transform="scale(0.7,0.7) translate(8,8)" display="none"> 		<rect id="_916291DA-E0CE-4524-A1B8-A9ED7D92708Aframe6" oryx:anchors="top left" x="0" y="0" width="22" height="4" style="opacity:1;fill:#B3B1B3;fill-opacity:1;" stroke="#000000"/> 		<rect id="_916291DA-E0CE-4524-A1B8-A9ED7D92708Aframe7" oryx:anchors="top left" x="0" y="4" style="opacity:1;fill:none;" width="22" height="12" stroke="#000000"/> 		<path id="_916291DA-E0CE-4524-A1B8-A9ED7D92708Aframe8" oryx:anchors="top left" style="opacity:1;fill:none;" d="M 0 10 L 22 10" stroke="#000000"/> 		<path id="_916291DA-E0CE-4524-A1B8-A9ED7D92708Aframe9" oryx:anchors="top left" style="opacity:1; fill:none;" d="M 7 4 L 7 16" stroke="#000000"/> 	</g> 	 	<g id="_916291DA-E0CE-4524-A1B8-A9ED7D92708AscriptTask" transform="scale(0.7,0.7) translate(8,8)" display="none"> 		<path oryx:anchors="top left" id="_916291DA-E0CE-4524-A1B8-A9ED7D92708Aframe10" style="opacity:1;fill:none;" stroke="#000000" d="M6.402,0.5h14.5c0,0-5.833,2.833-5.833,5.583s4.417,6,4.417,9.167    s-4.167,5.083-4.167,5.083H0.235c0,0,5-2.667,5-5s-4.583-6.75-4.583-9.25S6.402,0.5,6.402,0.5z"/> 		<path oryx:anchors="top left" id="_916291DA-E0CE-4524-A1B8-A9ED7D92708Aframe11" style="opacity:1;fill:none;stroke-width:1.5" d="M 3.5 4.5 L 13.5 4.5" stroke="#000000"/> 		<path oryx:anchors="top left" id="_916291DA-E0CE-4524-A1B8-A9ED7D92708Aframe12" style="opacity:1;fill:none;stroke-width:1.5" d="M 3.8 8.5 L 13.8 8.5" stroke="#000000"/> 		<path oryx:anchors="top left" id="_916291DA-E0CE-4524-A1B8-A9ED7D92708Aframe13" style="opacity:1;fill:none;stroke-width:1.5" d="M 6.3 12.5 L 16.3 12.5" stroke="#000000"/> 		<path oryx:anchors="top left" id="_916291DA-E0CE-4524-A1B8-A9ED7D92708Aframe14" style="opacity:1;fill:none;stroke-width:1.5" d="M 6.5 16.5 L 16.5 16.5" stroke="#000000"/> 	</g> 	 	<g id="_916291DA-E0CE-4524-A1B8-A9ED7D92708AuserTask" transform="scale(0.7,0.7) translate(8,8)" display="none"> 		<path id="_916291DA-E0CE-4524-A1B8-A9ED7D92708Aframe15" oryx:anchors="top left" style="opacity:1;fill:#F4F6F7" stroke="#000000" d="M0.585,24.167h24.083v-7.833c0,0-2.333-3.917-7.083-5.167h-9.25    c-4.417,1.333-7.833,5.75-7.833,5.75L0.585,24.167z"/> 		<path id="_916291DA-E0CE-4524-A1B8-A9ED7D92708Aframe16" oryx:anchors="top left" style="opacity:1;fill:none" d="M 6 20 L 6 24" stroke="#000000"/> 		<path id="_916291DA-E0CE-4524-A1B8-A9ED7D92708Aframe17" oryx:anchors="top left" style="opacity:1;fill:none" d="M 20 20 L 20 24" stroke="#000000"/> 		<circle id="_916291DA-E0CE-4524-A1B8-A9ED7D92708Aframe18" oryx:anchors="top left" fill="black" cx="13.002" cy="5.916" r="5.417" stroke="#000000"/> 		<path id="_916291DA-E0CE-4524-A1B8-A9ED7D92708Aframe19" oryx:anchors="top left" style="opacity:1;fill:#F0EFF0;" stroke="#000000" d="M8.043,7.083c0,0,2.814-2.426,5.376-1.807s4.624-0.693,4.624-0.693    c0.25,1.688,0.042,3.75-1.458,5.584c0,0,1.083,0.75,1.083,1.5s0.125,1.875-1,3s-5.5,1.25-6.75,0S8.668,12.834,8.668,12    s0.583-1.25,1.25-1.917C8.835,9.5,7.419,7.708,8.043,7.083z"/> 	</g> 	 	<g id="_916291DA-E0CE-4524-A1B8-A9ED7D92708AserviceTask" transform="scale(0.7,0.7) translate(8,8)" display="none"> 		<polygon oryx:anchors="top left" id="_916291DA-E0CE-4524-A1B8-A9ED7D92708Aframe20" style="opacity:1;fill:#ffffff" stroke="#000000" points="15.392,5.064 17.954,2.502 20.347,4.895 17.786,7.455     18.729,9.732 22.353,9.732 22.353,13.115 18.731,13.115 17.788,15.392 20.351,17.955 17.958,20.347 15.397,17.786 13.12,18.729     13.12,22.353 9.737,22.353 9.737,18.731 7.46,17.788 4.897,20.35 2.506,17.958 5.066,15.397 4.124,13.12 0.5,13.12 0.5,9.737     4.121,9.737 5.065,7.461 2.503,4.898 4.895,2.506 7.455,5.066 9.732,4.125 9.732,0.5 13.116,0.5 13.116,4.121 "/> 		<circle oryx:anchors="top left" id="_916291DA-E0CE-4524-A1B8-A9ED7D92708Aframe21" style="opacity:1;fill:none" stroke="#000000" cx="11.427" cy="11.426" r="3.714"/> 		<polygon oryx:anchors="top left" id="_916291DA-E0CE-4524-A1B8-A9ED7D92708Aframe22" style="opacity:1;fill:#ffffff" stroke="#000000" points="21.392,11.064 23.954,8.502 26.347,10.895 23.786,13.455     24.729,15.732 28.353,15.732 28.353,19.115 24.731,19.115 23.788,21.392 26.351,23.955 23.958,26.347 21.397,23.786 19.12,24.729     19.12,28.353 15.737,28.353 15.737,24.731 13.46,23.788 10.897,26.35 8.506,23.958 11.066,21.397 10.124,19.12 6.5,19.12     6.5,15.737 10.121,15.737 11.065,13.461 8.503,10.898 10.895,8.506 13.455,11.066 15.732,10.125 15.732,6.5 19.116,6.5     19.116,10.121 "/> 		<circle oryx:anchors="top left" id="_916291DA-E0CE-4524-A1B8-A9ED7D92708Aframe23" style="opacity:1;fill:none;" stroke="#000000" cx="17.427" cy="17.426" r="3.714"/> 	</g> 	 	<g id="_916291DA-E0CE-4524-A1B8-A9ED7D92708AsendTask" display="none"> 		<path id="_916291DA-E0CE-4524-A1B8-A9ED7D92708Astframe24" oryx:anchors="left top" stroke="#FFFFFF" fill="black" stroke-width="1" d="M8,11 L8,21 L24,21 L24,11 L16,17z"/> 		<path id="_916291DA-E0CE-4524-A1B8-A9ED7D92708Astframe25" oryx:anchors="left top" stroke="#FFFFFF" fill="black" stroke-width="1" d="M7,10 L16,17 L25 10z"/> 	</g> 	 	<g id="_916291DA-E0CE-4524-A1B8-A9ED7D92708AreceiveTask" display="none"> 		<path id="_916291DA-E0CE-4524-A1B8-A9ED7D92708Aframe26" oryx:anchors="left top" stroke="#000000" fill="none" stroke-width="1" d="M8,11 L8,21 L24,21 L24,11z M8,11 L16,17 L24,11"/> 	</g> 	 	<g id="_916291DA-E0CE-4524-A1B8-A9ED7D92708Anone" display="inherit"/>  	<g id="_916291DA-E0CE-4524-A1B8-A9ED7D92708Asequential" display="none">         <path oryx:anchors="bottom" fill="none" stroke="#000000" stroke-width="2" d="M46,76h10M46,72h10 M46,68h10" id="_916291DA-E0CE-4524-A1B8-A9ED7D92708A__916291DA-E0CE-4524-A1B8-A9ED7D92708A_20"/>     </g>   </g></g><g class="children" style="overflow:hidden"/><g class="edge"/></g><g class="controls"><g class="dockers"/><g class="magnets" transform="translate(195, 140)"><g pointer-events="all" display="none" transform="translate(-7, 12)"><circle cx="8" cy="8" r="4" stroke="none" fill="red" fill-opacity="0.3"/></g><g pointer-events="all" display="none" transform="translate(-7, 32)"><circle cx="8" cy="8" r="4" stroke="none" fill="red" fill-opacity="0.3"/></g><g pointer-events="all" display="none" transform="translate(-7, 52)"><circle cx="8" cy="8" r="4" stroke="none" fill="red" fill-opacity="0.3"/></g><g pointer-events="all" display="none" transform="translate(17, 71)"><circle cx="8" cy="8" r="4" stroke="none" fill="red" fill-opacity="0.3"/></g><g pointer-events="all" display="none" transform="translate(42, 71)"><circle cx="8" cy="8" r="4" stroke="none" fill="red" fill-opacity="0.3"/></g><g pointer-events="all" display="none" transform="translate(67, 71)"><circle cx="8" cy="8" r="4" stroke="none" fill="red" fill-opacity="0.3"/></g><g pointer-events="all" display="none" transform="translate(91, 12)"><circle cx="8" cy="8" r="4" stroke="none" fill="red" fill-opacity="0.3"/></g><g pointer-events="all" display="none" transform="translate(91, 32)"><circle cx="8" cy="8" r="4" stroke="none" fill="red" fill-opacity="0.3"/></g><g pointer-events="all" display="none" transform="translate(91, 52)"><circle cx="8" cy="8" r="4" stroke="none" fill="red" fill-opacity="0.3"/></g><g pointer-events="all" display="none" transform="translate(17, -7)"><circle cx="8" cy="8" r="4" stroke="none" fill="red" fill-opacity="0.3"/></g><g pointer-events="all" display="none" transform="translate(42, -7)"><circle cx="8" cy="8" r="4" stroke="none" fill="red" fill-opacity="0.3"/></g><g pointer-events="all" display="none" transform="translate(67, -7)"><circle cx="8" cy="8" r="4" stroke="none" fill="red" fill-opacity="0.3"/></g><g pointer-events="all" display="none" transform="translate(42, 32)"><circle cx="8" cy="8" r="4" stroke="none" fill="red" fill-opacity="0.3"/></g></g></g></g><g id="_55243F71-F3B1-4579-B731-7CB4AB15241D" bpmn2nodeid="_41AC5243-5617-4970-B3B3-54B480207880"><g class="stencils" transform="translate(340, 166)"><g class="me"><g pointer-events="fill" id="_55243F71-F3B1-4579-B731-7CB4AB15241D">      <defs id="_55243F71-F3B1-4579-B731-7CB4AB15241D__55243F71-F3B1-4579-B731-7CB4AB15241D_5"> 		<radialGradient id="_55243F71-F3B1-4579-B731-7CB4AB15241Dbackground" cx="10%" cy="10%" r="100%" fx="10%" fy="10%"> 			<stop offset="0%" stop-color="#ffffff" stop-opacity="1" id="_55243F71-F3B1-4579-B731-7CB4AB15241D__55243F71-F3B1-4579-B731-7CB4AB15241D_6"/> 			<stop id="_55243F71-F3B1-4579-B731-7CB4AB15241Dfill_el" offset="100%" stop-color="#ff6347" stop-opacity="1"/> 		</radialGradient> 	</defs> 	     <circle id="_55243F71-F3B1-4579-B731-7CB4AB15241Dbg_frame" cx="14" cy="14" r="14" stroke="#000000" fill="url(#_55243F71-F3B1-4579-B731-7CB4AB15241Dbackground) white" stroke-width="3"/> 	<text font-size="11" id="_55243F71-F3B1-4579-B731-7CB4AB15241Dtext_name" x="14" y="30" oryx:align="top center" stroke="black" stroke-width="0pt" letter-spacing="-0.01px" fill="#000000" text-anchor="middle" transform="rotate(0 14 30)" visibility="inherit" oryx:fontSize="11"/>   </g></g><g class="children" style="overflow:hidden"/><g class="edge"/></g><g class="controls"><g class="dockers"/><g class="magnets" transform="translate(340, 166)"><g pointer-events="all" display="none" transform="translate(6, 6)"><circle cx="8" cy="8" r="4" stroke="none" fill="red" fill-opacity="0.3"/></g></g></g></g></g><g class="edge"><g id="_D6A0C8F2-0DD9-48AF-A4FF-5DF69D83CF95" bpmn2nodeid="_1E316CEF-1C9F-441E-81DF-3A967EAD5BC2"><g class="stencils"><g class="me"><g pointer-events="painted" bpmn2nodeid="_1E316CEF-1C9F-441E-81DF-3A967EAD5BC2"><path id="_D6A0C8F2-0DD9-48AF-A4FF-5DF69D83CF95_1" d="M150.609375 180L194.15625 180 " stroke="#000000" fill="none" stroke-width="2" stroke-linecap="round" stroke-linejoin="round" marker-start="url(#_D6A0C8F2-0DD9-48AF-A4FF-5DF69D83CF95start)" marker-end="url(#_D6A0C8F2-0DD9-48AF-A4FF-5DF69D83CF95end)"/></g><text id="_D6A0C8F2-0DD9-48AF-A4FF-5DF69D83CF95text_name" font-size="12" x="164.609375" y="166" oryx:edgePosition="startTop" stroke-width="0pt" letter-spacing="-0.01px" fill="#000000" text-anchor="start" transform="rotate(360 150.609375 180)" visibility="inherit" oryx:fontSize="12"/></g><g class="children" style="overflow:hidden"/><g class="edge"/></g><g class="controls"><g class="dockers"/><g class="magnets"/></g></g><g id="_7FB3D58E-3ECF-48EF-B4AE-F8292F2CF5CD" bpmn2nodeid="_198B6A2F-977C-4D86-AD81-76943460E56F"><g class="stencils"><g class="me"><g pointer-events="painted" bpmn2nodeid="_198B6A2F-977C-4D86-AD81-76943460E56F"><path id="_7FB3D58E-3ECF-48EF-B4AE-F8292F2CF5CD_1" d="M295.390625 180L339.375 180 " stroke="#000000" fill="none" stroke-width="2" stroke-linecap="round" stroke-linejoin="round" marker-start="url(#_7FB3D58E-3ECF-48EF-B4AE-F8292F2CF5CDstart)" marker-end="url(#_7FB3D58E-3ECF-48EF-B4AE-F8292F2CF5CDend)"/></g><text id="_7FB3D58E-3ECF-48EF-B4AE-F8292F2CF5CDtext_name" font-size="12" x="309.390625" y="166" oryx:edgePosition="startTop" stroke-width="0pt" letter-spacing="-0.01px" fill="#000000" text-anchor="start" transform="rotate(360 295.390625 180)" visibility="inherit" oryx:fontSize="12"/></g><g class="children" style="overflow:hidden"/><g class="edge"/></g><g class="controls"><g class="dockers"/><g class="magnets"/></g></g></g><text id="_D5059772-8DB1-492C-99A1-12C39BC9C284" style="stroke-width:1;fill:rgb(177,194,214);font-family:arial;font-weight:bold" font-size="12" onclick="ORYX.Plugins.CanvasTitle.openTextualAnalysis()" onmouseover="ORYX.Plugins.CanvasTitle.addToolTip('_D5059772-8DB1-492C-99A1-12C39BC9C284')" transform="translate(10, 20)">newTest v.1.0 (simple-process.newTest)</text></g></g></svg>