<svg xmlns="http://www.w3.org/2000/svg" xmlns:oryx="http://oryx-editor.org" id="_35B3214F-3479-43A5-8F71-46B31E4E0516" width="409.1166687011719" height="265.1666717529297" xmlns:xlink="http://www.w3.org/1999/xlink" xmlns:svg="http://www.w3.org/2000/svg"><defs><marker id="_96E869C6-DD4C-42B3-A76E-6FC12049BBB3start" refX="1" refY="5" markerUnits="userSpaceOnUse" markerWidth="17" markerHeight="11" orient="auto" fill="#000000" stroke="#000000"> 	  		<path id="_96E869C6-DD4C-42B3-A76E-6FC12049BBB3conditional" d="M 0 5 L 8 0 L 16 5 L 8 10 L 0 5" fill="white" stroke="#000000" stroke-width="1" display="none"/> 			<path id="_96E869C6-DD4C-42B3-A76E-6FC12049BBB3default" d="M 5 0 L 11 10" fill="white" stroke="#000000" stroke-width="1" display="none"/> 	  	</marker><marker id="_96E869C6-DD4C-42B3-A76E-6FC12049BBB3end" refX="15" refY="6" markerUnits="userSpaceOnUse" markerWidth="15" markerHeight="12" orient="auto" fill="#000000" stroke="#000000"> 	  		<path id="_96E869C6-DD4C-42B3-A76E-6FC12049BBB3frame2" d="M 0 1 L 15 6 L 0 11z" fill="#000000" stroke="#000000" stroke-linejoin="round" stroke-width="2"/> 	  	</marker><marker id="_E6AD8ED2-D27B-413C-82D7-69798B3583FBstart" refX="1" refY="5" markerUnits="userSpaceOnUse" markerWidth="17" markerHeight="11" orient="auto" fill="#000000" stroke="#000000"> 	  		<path id="_E6AD8ED2-D27B-413C-82D7-69798B3583FBconditional" d="M 0 5 L 8 0 L 16 5 L 8 10 L 0 5" fill="white" stroke="#000000" stroke-width="1" display="none"/> 			<path id="_E6AD8ED2-D27B-413C-82D7-69798B3583FBdefault" d="M 5 0 L 11 10" fill="white" stroke="#000000" stroke-width="1" display="none"/> 	  	</marker><marker id="_E6AD8ED2-D27B-413C-82D7-69798B3583FBend" refX="15" refY="6" markerUnits="userSpaceOnUse" markerWidth="15" markerHeight="12" orient="auto" fill="#000000" stroke="#000000"> 	  		<path id="_E6AD8ED2-D27B-413C-82D7-69798B3583FBframe2" d="M 0 1 L 15 6 L 0 11z" fill="#000000" stroke="#000000" stroke-linejoin="round" stroke-width="2"/> 	  	</marker></defs><g stroke="none" font-family="Verdana, sans-serif" font-size-adjust="none" font-style="normal" font-variant="normal" font-weight="normal" line-heigth="normal" font-size="12"><g class="stencils" transform="translate(16.116666793823242, 16.166666984558105)"><g class="me"/><g class="children"><g id="_785B5414-7C1C-4582-8F3B-F1FE82890EEF" bpmn2nodeid="_A4FCED14-E8EB-484C-8E50-62C2B333353F"><g class="stencils" transform="translate(150, 140)"><g class="me"><g pointer-events="fill" oryx:minimumSize="50 40" id="_785B5414-7C1C-4582-8F3B-F1FE82890EEF">   	<defs id="_785B5414-7C1C-4582-8F3B-F1FE82890EEF__785B5414-7C1C-4582-8F3B-F1FE82890EEF_17"> 		<radialGradient id="_785B5414-7C1C-4582-8F3B-F1FE82890EEFbackground" cx="10%" cy="10%" r="100%" fx="10%" fy="10%"> 			<stop offset="0%" stop-color="#ffffff" stop-opacity="1" id="_785B5414-7C1C-4582-8F3B-F1FE82890EEF__785B5414-7C1C-4582-8F3B-F1FE82890EEF_18"/> 			<stop id="_785B5414-7C1C-4582-8F3B-F1FE82890EEFfill_el" offset="100%" stop-color="#fafad2" stop-opacity="1"/> 		</radialGradient> 		<radialGradient id="_785B5414-7C1C-4582-8F3B-F1FE82890EEFborderbackground" cx="10%" cy="10%" r="100%" fx="10%" fy="10%"> 			<stop offset="0%" stop-color="#ffffff" stop-opacity="1" id="_785B5414-7C1C-4582-8F3B-F1FE82890EEF__785B5414-7C1C-4582-8F3B-F1FE82890EEF_19"/> 			<stop id="_785B5414-7C1C-4582-8F3B-F1FE82890EEFfill_border" offset="100%" stop-color="#000000" stop-opacity="1" stroke="#000000"/> 		</radialGradient> 	</defs> 	 	<rect id="_785B5414-7C1C-4582-8F3B-F1FE82890EEFtext_frame" oryx:anchors="bottom top right left" x="1" y="1" width="94" height="79" rx="10" ry="10" stroke="none" stroke-width="0" fill="none"/> 	<rect id="_785B5414-7C1C-4582-8F3B-F1FE82890EEFbg_frame" oryx:resize="vertical horizontal" x="0" y="0" width="100" height="80" rx="10" ry="10" stroke="#000000" stroke-width="1" fill="url(#_785B5414-7C1C-4582-8F3B-F1FE82890EEFbackground) #ffffcc"/> 		<text font-size="12" id="_785B5414-7C1C-4582-8F3B-F1FE82890EEFtext_name" x="50" y="40" oryx:align="middle center" oryx:fittoelem="text_frame" stroke="black" text-anchor="middle" stroke-width="0pt" letter-spacing="-0.01px" fill="#000000" transform="rotate(0 50 40)" visibility="inherit" oryx:fontSize="12"><tspan x="50" y="40" dy="5">print hello</tspan></text>     <g id="_785B5414-7C1C-4582-8F3B-F1FE82890EEFmanualTask" transform="scale(0.7,0.7) translate(8,8)" display="none">     	<path oryx:anchors="top left" id="_785B5414-7C1C-4582-8F3B-F1FE82890EEFframe" style="opacity:1;fill:none;fill-opacity:1;stroke-width:1" d="M0.5,3.751l4.083-3.25c0,0,11.166,0.083,12.083,0.083s-2.417,2.917-1.5,2.917     s11.667,0,12.584,0c1.166,1.708-0.168,3.167-0.834,3.667s0.875,1.917-1,4.417c-0.75,0.25,0.75,1.875-1.333,3.333     c-1.167,0.583,0.583,1.542-1.25,2.833c-1.167,0-20.833,0.083-20.833,0.083l-2-1.333V3.751z" stroke="#000000"/> 		<path id="_785B5414-7C1C-4582-8F3B-F1FE82890EEFframe2" oryx:anchors="top left" style="opacity:1;fill:none;stroke-width:2" d="M 13.5 7 L 27 7" stroke="#000000"/> 		<path id="_785B5414-7C1C-4582-8F3B-F1FE82890EEFframe3" oryx:anchors="top left" style="opacity:1;fill:none;stroke-width:2" d="M 13.5 11 L 26 11" stroke="#000000"/> 		<path id="_785B5414-7C1C-4582-8F3B-F1FE82890EEFframe4" oryx:anchors="top left" style="opacity:1;fill:none;stroke-width:1.5" d="M 14 14.5 L 25 14.5" stroke="#000000"/> 		<path id="_785B5414-7C1C-4582-8F3B-F1FE82890EEFframe5" oryx:anchors="top left" style="opacity:1;fill:none;stroke-width:1.5" d="M 8.2 3.1 L 15 3.1" stroke="#000000"/> 	</g> 	 	<g id="_785B5414-7C1C-4582-8F3B-F1FE82890EEFbusinessRuleTask" transform="scale(0.7,0.7) translate(8,8)" display="none"> 		<rect id="_785B5414-7C1C-4582-8F3B-F1FE82890EEFframe6" oryx:anchors="top left" x="0" y="0" width="22" height="4" style="opacity:1;fill:#B3B1B3;fill-opacity:1;" stroke="#000000"/> 		<rect id="_785B5414-7C1C-4582-8F3B-F1FE82890EEFframe7" oryx:anchors="top left" x="0" y="4" style="opacity:1;fill:none;" width="22" height="12" stroke="#000000"/> 		<path id="_785B5414-7C1C-4582-8F3B-F1FE82890EEFframe8" oryx:anchors="top left" style="opacity:1;fill:none;" d="M 0 10 L 22 10" stroke="#000000"/> 		<path id="_785B5414-7C1C-4582-8F3B-F1FE82890EEFframe9" oryx:anchors="top left" style="opacity:1; fill:none;" d="M 7 4 L 7 16" stroke="#000000"/> 	</g> 	 	<g id="_785B5414-7C1C-4582-8F3B-F1FE82890EEFscriptTask" transform="scale(0.7,0.7) translate(8,8)" display="inherit"> 		<path oryx:anchors="top left" id="_785B5414-7C1C-4582-8F3B-F1FE82890EEFframe10" style="opacity:1;fill:none;" stroke="#000000" d="M6.402,0.5h14.5c0,0-5.833,2.833-5.833,5.583s4.417,6,4.417,9.167    s-4.167,5.083-4.167,5.083H0.235c0,0,5-2.667,5-5s-4.583-6.75-4.583-9.25S6.402,0.5,6.402,0.5z"/> 		<path oryx:anchors="top left" id="_785B5414-7C1C-4582-8F3B-F1FE82890EEFframe11" style="opacity:1;fill:none;stroke-width:1.5" d="M 3.5 4.5 L 13.5 4.5" stroke="#000000"/> 		<path oryx:anchors="top left" id="_785B5414-7C1C-4582-8F3B-F1FE82890EEFframe12" style="opacity:1;fill:none;stroke-width:1.5" d="M 3.8 8.5 L 13.8 8.5" stroke="#000000"/> 		<path oryx:anchors="top left" id="_785B5414-7C1C-4582-8F3B-F1FE82890EEFframe13" style="opacity:1;fill:none;stroke-width:1.5" d="M 6.3 12.5 L 16.3 12.5" stroke="#000000"/> 		<path oryx:anchors="top left" id="_785B5414-7C1C-4582-8F3B-F1FE82890EEFframe14" style="opacity:1;fill:none;stroke-width:1.5" d="M 6.5 16.5 L 16.5 16.5" stroke="#000000"/> 	</g> 	 	<g id="_785B5414-7C1C-4582-8F3B-F1FE82890EEFuserTask" transform="scale(0.7,0.7) translate(8,8)" display="none"> 		<path id="_785B5414-7C1C-4582-8F3B-F1FE82890EEFframe15" oryx:anchors="top left" style="opacity:1;fill:#F4F6F7" stroke="#000000" d="M0.585,24.167h24.083v-7.833c0,0-2.333-3.917-7.083-5.167h-9.25    c-4.417,1.333-7.833,5.75-7.833,5.75L0.585,24.167z"/> 		<path id="_785B5414-7C1C-4582-8F3B-F1FE82890EEFframe16" oryx:anchors="top left" style="opacity:1;fill:none" d="M 6 20 L 6 24" stroke="#000000"/> 		<path id="_785B5414-7C1C-4582-8F3B-F1FE82890EEFframe17" oryx:anchors="top left" style="opacity:1;fill:none" d="M 20 20 L 20 24" stroke="#000000"/> 		<circle id="_785B5414-7C1C-4582-8F3B-F1FE82890EEFframe18" oryx:anchors="top left" fill="black" cx="13.002" cy="5.916" r="5.417" stroke="#000000"/> 		<path id="_785B5414-7C1C-4582-8F3B-F1FE82890EEFframe19" oryx:anchors="top left" style="opacity:1;fill:#F0EFF0;" stroke="#000000" d="M8.043,7.083c0,0,2.814-2.426,5.376-1.807s4.624-0.693,4.624-0.693    c0.25,1.688,0.042,3.75-1.458,5.584c0,0,1.083,0.75,1.083,1.5s0.125,1.875-1,3s-5.5,1.25-6.75,0S8.668,12.834,8.668,12    s0.583-1.25,1.25-1.917C8.835,9.5,7.419,7.708,8.043,7.083z"/> 	</g> 	 	<g id="_785B5414-7C1C-4582-8F3B-F1FE82890EEFserviceTask" transform="scale(0.7,0.7) translate(8,8)" display="none"> 		<polygon oryx:anchors="top left" id="_785B5414-7C1C-4582-8F3B-F1FE82890EEFframe20" style="opacity:1;fill:#ffffff" stroke="#000000" points="15.392,5.064 17.954,2.502 20.347,4.895 17.786,7.455     18.729,9.732 22.353,9.732 22.353,13.115 18.731,13.115 17.788,15.392 20.351,17.955 17.958,20.347 15.397,17.786 13.12,18.729     13.12,22.353 9.737,22.353 9.737,18.731 7.46,17.788 4.897,20.35 2.506,17.958 5.066,15.397 4.124,13.12 0.5,13.12 0.5,9.737     4.121,9.737 5.065,7.461 2.503,4.898 4.895,2.506 7.455,5.066 9.732,4.125 9.732,0.5 13.116,0.5 13.116,4.121 "/> 		<circle oryx:anchors="top left" id="_785B5414-7C1C-4582-8F3B-F1FE82890EEFframe21" style="opacity:1;fill:none" stroke="#000000" cx="11.427" cy="11.426" r="3.714"/> 		<polygon oryx:anchors="top left" id="_785B5414-7C1C-4582-8F3B-F1FE82890EEFframe22" style="opacity:1;fill:#ffffff" stroke="#000000" points="21.392,11.064 23.954,8.502 26.347,10.895 23.786,13.455     24.729,15.732 28.353,15.732 28.353,19.115 24.731,19.115 23.788,21.392 26.351,23.955 23.958,26.347 21.397,23.786 19.12,24.729     19.12,28.353 15.737,28.353 15.737,24.731 13.46,23.788 10.897,26.35 8.506,23.958 11.066,21.397 10.124,19.12 6.5,19.12     6.5,15.737 10.121,15.737 11.065,13.461 8.503,10.898 10.895,8.506 13.455,11.066 15.732,10.125 15.732,6.5 19.116,6.5     19.116,10.121 "/> 		<circle oryx:anchors="top left" id="_785B5414-7C1C-4582-8F3B-F1FE82890EEFframe23" style="opacity:1;fill:none;" stroke="#000000" cx="17.427" cy="17.426" r="3.714"/> 	</g> 	 	<g id="_785B5414-7C1C-4582-8F3B-F1FE82890EEFsendTask" display="none"> 		<path id="_785B5414-7C1C-4582-8F3B-F1FE82890EEFstframe24" oryx:anchors="left top" stroke="#FFFFFF" fill="black" stroke-width="1" d="M8,11 L8,21 L24,21 L24,11 L16,17z"/> 		<path id="_785B5414-7C1C-4582-8F3B-F1FE82890EEFstframe25" oryx:anchors="left top" stroke="#FFFFFF" fill="black" stroke-width="1" d="M7,10 L16,17 L25 10z"/> 	</g> 	 	<g id="_785B5414-7C1C-4582-8F3B-F1FE82890EEFreceiveTask" display="none"> 		<path id="_785B5414-7C1C-4582-8F3B-F1FE82890EEFframe26" oryx:anchors="left top" stroke="#000000" fill="none" stroke-width="1" d="M8,11 L8,21 L24,21 L24,11z M8,11 L16,17 L24,11"/> 	</g> 	 	<g id="_785B5414-7C1C-4582-8F3B-F1FE82890EEFnone" display="inherit"/>  	<g id="_785B5414-7C1C-4582-8F3B-F1FE82890EEFsequential" display="none">         <path oryx:anchors="bottom" fill="none" stroke="#000000" stroke-width="2" d="M46,76h10M46,72h10 M46,68h10" id="_785B5414-7C1C-4582-8F3B-F1FE82890EEF__785B5414-7C1C-4582-8F3B-F1FE82890EEF_20"/>     </g>   </g></g><g class="children" style="overflow:hidden"/><g class="edge"/></g><g class="controls"><g class="dockers"/><g class="magnets" transform="translate(150, 140)"><g pointer-events="all" display="none" transform="translate(-7, 12)"><circle cx="8" cy="8" r="4" stroke="none" fill="red" fill-opacity="0.3"/></g><g pointer-events="all" display="none" transform="translate(-7, 32)"><circle cx="8" cy="8" r="4" stroke="none" fill="red" fill-opacity="0.3"/></g><g pointer-events="all" display="none" transform="translate(-7, 52)"><circle cx="8" cy="8" r="4" stroke="none" fill="red" fill-opacity="0.3"/></g><g pointer-events="all" display="none" transform="translate(17, 71)"><circle cx="8" cy="8" r="4" stroke="none" fill="red" fill-opacity="0.3"/></g><g pointer-events="all" display="none" transform="translate(42, 71)"><circle cx="8" cy="8" r="4" stroke="none" fill="red" fill-opacity="0.3"/></g><g pointer-events="all" display="none" transform="translate(67, 71)"><circle cx="8" cy="8" r="4" stroke="none" fill="red" fill-opacity="0.3"/></g><g pointer-events="all" display="none" transform="translate(91, 12)"><circle cx="8" cy="8" r="4" stroke="none" fill="red" fill-opacity="0.3"/></g><g pointer-events="all" display="none" transform="translate(91, 32)"><circle cx="8" cy="8" r="4" stroke="none" fill="red" fill-opacity="0.3"/></g><g pointer-events="all" display="none" transform="translate(91, 52)"><circle cx="8" cy="8" r="4" stroke="none" fill="red" fill-opacity="0.3"/></g><g pointer-events="all" display="none" transform="translate(17, -7)"><circle cx="8" cy="8" r="4" stroke="none" fill="red" fill-opacity="0.3"/></g><g pointer-events="all" display="none" transform="translate(42, -7)"><circle cx="8" cy="8" r="4" stroke="none" fill="red" fill-opacity="0.3"/></g><g pointer-events="all" display="none" transform="translate(67, -7)"><circle cx="8" cy="8" r="4" stroke="none" fill="red" fill-opacity="0.3"/></g><g pointer-events="all" display="none" transform="translate(42, 32)"><circle cx="8" cy="8" r="4" stroke="none" fill="red" fill-opacity="0.3"/></g></g></g></g><g id="_9D02E6BB-F518-4073-8BAD-78FE63C67878" bpmn2nodeid="_40159BBD-8412-41C1-913A-8EBE0CD7E8A9"><g class="stencils" transform="translate(340, 166)"><g class="me"><g pointer-events="fill" id="_9D02E6BB-F518-4073-8BAD-78FE63C67878">      <defs id="_9D02E6BB-F518-4073-8BAD-78FE63C67878__9D02E6BB-F518-4073-8BAD-78FE63C67878_5"> 		<radialGradient id="_9D02E6BB-F518-4073-8BAD-78FE63C67878background" cx="10%" cy="10%" r="100%" fx="10%" fy="10%"> 			<stop offset="0%" stop-color="#ffffff" stop-opacity="1" id="_9D02E6BB-F518-4073-8BAD-78FE63C67878__9D02E6BB-F518-4073-8BAD-78FE63C67878_6"/> 			<stop id="_9D02E6BB-F518-4073-8BAD-78FE63C67878fill_el" offset="100%" stop-color="#ff6347" stop-opacity="1"/> 		</radialGradient> 	</defs> 	     <circle id="_9D02E6BB-F518-4073-8BAD-78FE63C67878bg_frame" cx="14" cy="14" r="14" stroke="#000000" fill="url(#_9D02E6BB-F518-4073-8BAD-78FE63C67878background) white" stroke-width="3"/> 	<text font-size="11" id="_9D02E6BB-F518-4073-8BAD-78FE63C67878text_name" x="14" y="30" oryx:align="top center" stroke="black" stroke-width="0pt" letter-spacing="-0.01px" fill="#000000" text-anchor="middle" transform="rotate(0 14 30)" visibility="inherit" oryx:fontSize="11"/>   </g></g><g class="children" style="overflow:hidden"/><g class="edge"/></g><g class="controls"><g class="dockers"/><g class="magnets" transform="translate(340, 166)"><g pointer-events="all" display="none" transform="translate(6, 6)"><circle cx="8" cy="8" r="4" stroke="none" fill="red" fill-opacity="0.3"/></g></g></g></g><g id="_828B08E7-6BDD-4777-9E1B-9A3FCDB9DB51" bpmn2nodeid="_A5B6D28C-C7F2-4837-B463-E8EFAC86BB9F"><g class="stencils" transform="translate(55, 177)"><g class="me"><g pointer-events="fill" id="_828B08E7-6BDD-4777-9E1B-9A3FCDB9DB51">        <defs id="_828B08E7-6BDD-4777-9E1B-9A3FCDB9DB51__828B08E7-6BDD-4777-9E1B-9A3FCDB9DB51_5"> 		<radialGradient id="_828B08E7-6BDD-4777-9E1B-9A3FCDB9DB51background" cx="10%" cy="10%" r="100%" fx="10%" fy="10%"> 			<stop offset="0%" stop-color="#ffffff" stop-opacity="1" id="_828B08E7-6BDD-4777-9E1B-9A3FCDB9DB51__828B08E7-6BDD-4777-9E1B-9A3FCDB9DB51_6"/> 			<stop id="_828B08E7-6BDD-4777-9E1B-9A3FCDB9DB51fill_el" offset="100%" stop-color="#9acd32" stop-opacity="1"/> 		</radialGradient> 	</defs> 	     <circle id="_828B08E7-6BDD-4777-9E1B-9A3FCDB9DB51bg_frame" cx="15" cy="15" r="15" stroke="#000000" fill="url(#_828B08E7-6BDD-4777-9E1B-9A3FCDB9DB51background) white" stroke-width="1" style="stroke-dasharray: 5.5, 3"/>      <circle id="_828B08E7-6BDD-4777-9E1B-9A3FCDB9DB51frame" cx="15" cy="15" r="15" stroke="#000000" fill="none" stroke-width="1" display="inherit"/>  	<text font-size="11" id="_828B08E7-6BDD-4777-9E1B-9A3FCDB9DB51text_name" x="15" y="32" oryx:align="top center" stroke="black" stroke-width="0pt" letter-spacing="-0.01px" fill="#000000" text-anchor="middle" transform="rotate(0 15 32)" visibility="inherit" oryx:fontSize="11"/>   </g></g><g class="children" style="overflow:hidden"/><g class="edge"/></g><g class="controls"><g class="dockers"/><g class="magnets" transform="translate(55, 177)"><g pointer-events="all" display="none" transform="translate(7, 7)"><circle cx="8" cy="8" r="4" stroke="none" fill="red" fill-opacity="0.3"/></g></g></g></g></g><g class="edge"><g id="_96E869C6-DD4C-42B3-A76E-6FC12049BBB3" bpmn2nodeid="_809140B4-374A-4F0D-AEE7-33D19E34839E"><g class="stencils"><g class="me"><g pointer-events="painted" bpmn2nodeid="_9028179B-105C-4EE7-9A93-937E2ED32162"><path id="_96E869C6-DD4C-42B3-A76E-6FC12049BBB3_1" d="M250.328125 180L339.765625 180 " stroke="#000000" fill="none" stroke-width="2" stroke-linecap="round" stroke-linejoin="round" marker-start="url(#_96E869C6-DD4C-42B3-A76E-6FC12049BBB3start)" marker-end="url(#_96E869C6-DD4C-42B3-A76E-6FC12049BBB3end)"/></g><text id="_96E869C6-DD4C-42B3-A76E-6FC12049BBB3text_name" font-size="12" x="264.328125" y="166" oryx:edgePosition="startTop" stroke-width="0pt" letter-spacing="-0.01px" fill="#000000" text-anchor="start" transform="rotate(360 250.328125 180)" visibility="inherit" oryx:fontSize="12"/></g><g class="children" style="overflow:hidden"/><g class="edge"/></g><g class="controls"><g class="dockers"/><g class="magnets"/></g></g><g id="_E6AD8ED2-D27B-413C-82D7-69798B3583FB" bpmn2nodeid="_9C9A9AA3-A085-42C4-A7E4-25A098405B99"><g class="stencils"><g class="me"><g pointer-events="painted" bpmn2nodeid="_66C488DC-68A6-43AD-9AD3-9BA37FB45CDA"><path id="_E6AD8ED2-D27B-413C-82D7-69798B3583FB_1" d="M85.21451667901798 190.59558307578297L149.23860832098202 184.68566692421703 " stroke="#000000" fill="none" stroke-width="2" stroke-linecap="round" stroke-linejoin="round" marker-start="url(#_E6AD8ED2-D27B-413C-82D7-69798B3583FBstart)" marker-end="url(#_E6AD8ED2-D27B-413C-82D7-69798B3583FBend)"/></g><text id="_E6AD8ED2-D27B-413C-82D7-69798B3583FBtext_name" font-size="12" x="99.21451667901798" y="176.59558307578297" oryx:edgePosition="startTop" stroke-width="0pt" letter-spacing="-0.01px" fill="#000000" text-anchor="start" transform="rotate(354.7261040426482 85.21451667901798 190.59558307578297)" visibility="inherit" oryx:fontSize="12"/></g><g class="children" style="overflow:hidden"/><g class="edge"/></g><g class="controls"><g class="dockers"/><g class="magnets"/></g></g></g><text id="_066E37D4-EC54-4951-94C0-8F9F70D2B382" style="stroke-width:1;fill:rgb(177,194,214);font-family:arial;font-weight:bold" font-size="12" onclick="ORYX.Plugins.CanvasTitle.openTextualAnalysis()" onmouseover="ORYX.Plugins.CanvasTitle.addToolTip('_066E37D4-EC54-4951-94C0-8F9F70D2B382')" transform="translate(10, 20)">hello-process v.1.0 (simple-process.hello-process)</text></g></g></svg>